<?xml version="1.0" standalone="no"?>
<!DOCTYPE svg PUBLIC "-//W3C//DTD SVG 20010904//EN"
 "http://www.w3.org/TR/2001/REC-SVG-20010904/DTD/svg10.dtd">
<svg version="1.0" xmlns="http://www.w3.org/2000/svg"
 width="2048.000000pt" height="2048.000000pt" viewBox="0 0 2048.000000 2048.000000"
 preserveAspectRatio="xMidYMid meet">
<metadata>
Created by potrace 1.11, written by Peter Selinger 2001-2013
</metadata>
<g transform="translate(0.000000,2048.000000) scale(0.100000,-0.100000)"
fill="#000000" stroke="none">
<path d="M15639 18745 c-2 -2 -62 -6 -134 -10 -71 -3 -155 -8 -185 -10 -30 -3
-98 -7 -150 -10 -90 -5 -145 -9 -285 -20 -33 -2 -100 -7 -150 -10 -49 -3 -112
-7 -140 -10 -27 -3 -81 -7 -120 -10 -38 -3 -92 -7 -120 -10 -27 -2 -86 -7
-130 -10 -44 -3 -93 -8 -110 -10 -16 -2 -66 -7 -110 -10 -44 -4 -93 -8 -110
-10 -41 -5 -124 -13 -220 -21 -44 -3 -89 -8 -100 -10 -11 -2 -54 -6 -95 -9
-41 -4 -82 -8 -90 -10 -8 -2 -49 -7 -90 -10 -41 -3 -86 -8 -100 -10 -14 -2
-54 -6 -90 -10 -36 -3 -76 -8 -90 -10 -14 -2 -54 -7 -90 -11 -36 -3 -72 -7
-80 -9 -8 -2 -49 -6 -90 -10 -41 -3 -82 -8 -90 -11 -8 -2 -37 -6 -65 -9 -27
-3 -66 -7 -85 -10 -41 -5 -204 -26 -240 -30 -14 -1 -47 -6 -75 -10 -91 -13
-99 -14 -185 -25 -47 -6 -96 -13 -110 -15 -14 -2 -45 -7 -69 -10 -23 -3 -55
-7 -70 -9 -14 -3 -46 -8 -71 -11 -42 -6 -180 -26 -275 -40 -22 -4 -110 -17
-195 -31 -193 -31 -184 -30 -305 -49 -55 -9 -113 -19 -130 -21 -16 -3 -41 -7
-55 -10 -14 -2 -77 -13 -140 -24 -63 -11 -126 -22 -140 -25 -56 -11 -137 -25
-174 -30 -21 -2 -46 -7 -55 -9 -15 -5 -28 -7 -106 -21 -16 -3 -41 -8 -55 -10
-40 -8 -71 -14 -130 -25 -71 -13 -90 -17 -180 -35 -41 -8 -84 -17 -95 -19
-503 -96 -828 -181 -1022 -267 -23 -11 -45 -19 -48 -19 -21 0 -330 -160 -415
-215 -19 -12 -69 -44 -110 -70 -74 -48 -277 -196 -315 -232 -11 -10 -43 -36
-70 -58 -74 -59 -350 -332 -430 -426 -38 -46 -75 -87 -80 -93 -10 -11 -129
-162 -185 -236 -53 -69 -219 -328 -289 -450 -208 -363 -379 -784 -481 -1185
-64 -254 -84 -363 -126 -710 -4 -27 -7 -993 -9 -2145 -2 -1814 -7 -2521 -20
-2672 -1 -20 -6 -89 -10 -155 -4 -65 -8 -134 -10 -153 -5 -66 -16 -175 -21
-210 -2 -19 -6 -62 -9 -95 -3 -33 -8 -71 -10 -85 -3 -14 -7 -45 -10 -70 -19
-168 -84 -508 -130 -686 -87 -332 -188 -565 -296 -677 l-46 -48 -114 8 c-210
15 -705 8 -804 -11 -11 -2 -51 -7 -88 -11 -37 -3 -76 -8 -85 -10 -9 -1 -37 -6
-62 -10 -87 -13 -95 -15 -150 -25 -30 -6 -66 -13 -80 -16 -208 -40 -592 -159
-805 -251 -471 -203 -850 -456 -1180 -787 -346 -347 -560 -686 -705 -1116 -26
-78 -76 -285 -85 -355 -4 -27 -9 -61 -11 -75 -21 -138 -21 -449 1 -580 2 -14
6 -43 10 -65 57 -382 220 -754 484 -1100 92 -121 331 -363 461 -466 468 -373
1055 -629 1690 -738 63 -10 144 -22 180 -26 36 -4 74 -9 85 -11 127 -25 911
-24 954 0 3 2 35 7 71 10 229 24 565 97 818 177 130 42 354 127 366 139 6 6
16 10 23 10 19 0 246 112 379 186 177 99 428 271 555 380 18 16 53 47 78 68
119 103 281 277 427 459 120 148 281 433 363 641 34 83 99 288 107 331 3 17
11 59 19 95 7 36 17 88 20 115 4 28 9 66 12 85 3 19 7 1484 8 3255 2 1771 5
3240 8 3265 3 25 8 74 11 110 4 36 8 76 11 90 2 14 6 48 10 75 22 183 82 445
149 650 306 927 939 1534 1681 1610 28 3 113 7 190 10 77 3 176 7 220 10 159
9 261 15 315 20 30 2 87 7 125 10 72 5 156 13 235 20 25 3 70 7 100 10 48 5
187 20 275 30 118 13 144 17 180 21 60 9 84 12 150 19 33 3 67 8 75 10 15 4
52 9 135 20 22 2 49 6 60 9 11 2 45 7 75 12 30 4 57 8 60 9 5 1 63 10 135 21
17 2 41 6 55 9 14 3 41 7 60 10 37 6 131 22 166 29 12 2 37 7 55 10 91 15 279
50 325 60 12 2 37 7 55 10 19 3 67 12 106 20 40 9 87 18 105 21 18 4 53 11 78
16 25 6 56 13 70 15 14 2 36 7 50 10 14 3 32 7 40 9 249 53 564 127 820 192
206 52 209 53 369 53 617 1 995 -352 1190 -1111 42 -162 64 -290 91 -509 33
-281 35 -374 35 -1650 0 -1050 -5 -1490 -20 -1680 -2 -25 -6 -87 -10 -139 -4
-51 -8 -101 -10 -110 -1 -9 -6 -52 -10 -96 -4 -44 -8 -82 -10 -85 -2 -3 -6
-27 -9 -55 -4 -27 -9 -57 -11 -65 -2 -8 -7 -30 -10 -47 -10 -61 -57 -197 -81
-235 l-24 -38 -92 8 c-193 15 -688 7 -828 -13 -14 -2 -52 -6 -85 -10 -33 -3
-71 -8 -85 -10 -23 -4 -52 -9 -125 -21 -16 -2 -55 -9 -85 -15 -30 -7 -59 -12
-65 -13 -253 -51 -577 -153 -827 -260 -21 -9 -41 -17 -45 -18 -26 -6 -348
-176 -448 -237 -659 -400 -1149 -980 -1359 -1606 -51 -153 -100 -368 -113
-500 -15 -152 -9 -488 12 -592 2 -11 6 -37 9 -57 3 -19 11 -57 17 -83 6 -27
12 -56 14 -65 9 -45 49 -177 71 -236 97 -260 264 -551 422 -735 351 -409 759
-698 1296 -916 82 -34 156 -61 165 -61 10 0 21 -4 27 -8 24 -22 479 -141 597
-156 18 -3 46 -7 62 -10 61 -9 171 -25 215 -31 223 -27 785 -27 951 0 13 2 51
6 84 10 53 5 185 25 270 40 238 43 560 133 770 216 434 171 789 378 1126 659
94 77 342 331 420 430 216 270 364 537 466 835 35 104 75 257 88 335 4 25 9
54 11 65 3 11 6 43 9 70 3 28 8 72 11 100 4 27 6 117 4 200 -2 159 -2 1756 -1
6990 1 1782 -1 3256 -3 3275 -2 19 -7 72 -10 118 -4 45 -9 88 -11 95 -2 6 -6
35 -9 62 -6 49 -11 84 -21 135 -3 14 -8 39 -11 55 -3 17 -18 84 -35 150 -124
506 -383 1008 -721 1400 -55 65 -289 299 -349 350 -327 280 -716 500 -1102
624 -103 33 -274 77 -333 87 -22 3 -42 8 -45 9 -3 2 -28 7 -55 10 -27 4 -56 8
-64 10 -8 2 -42 7 -75 11 -33 3 -69 9 -80 11 -23 6 -531 14 -536 8z m508 -428
c12 -1 24 -5 28 -9 5 -5 10 -412 6 -490 -1 -15 -11 -18 -71 -18 -84 0 -137
-19 -145 -52 -12 -46 -12 -63 -2 -86 22 -48 47 -52 316 -52 137 0 261 4 275
10 28 10 42 32 49 75 11 72 -36 105 -151 105 l-69 0 -1 239 0 239 26 -4 c98
-17 377 -99 420 -123 11 -6 16 -31 19 -91 13 -292 153 -476 356 -469 105 4
219 79 259 171 7 15 16 28 20 28 4 0 42 -28 85 -62 459 -370 791 -858 976
-1433 33 -103 78 -291 91 -379 4 -21 8 -41 10 -45 2 -3 7 -37 11 -76 3 -38 8
-79 11 -90 13 -62 15 -481 14 -3390 -2 -4761 -2 -6815 0 -6965 2 -154 -5 -244
-32 -375 -5 -27 -12 -63 -15 -80 -13 -79 -100 -314 -163 -441 -90 -183 -250
-420 -359 -535 -9 -9 -30 -32 -47 -50 -24 -27 -47 -38 -105 -53 -94 -24 -114
-33 -128 -60 -14 -26 -16 -52 -7 -88 7 -24 0 -32 -86 -100 -102 -81 -198 -152
-199 -146 0 1 -2 14 -5 28 -27 165 -56 243 -118 316 -49 57 -125 95 -201 102
-229 18 -377 -200 -369 -545 2 -91 11 -178 24 -222 10 -34 3 -39 -95 -71 -22
-7 -46 -18 -54 -24 -8 -6 -17 -10 -20 -9 -3 2 -28 -4 -54 -13 -45 -15 -50 -15
-67 1 -20 18 -48 23 -136 24 l-61 1 0 401 c-1 516 16 486 -236 417 -128 -35
-173 -60 -177 -98 -12 -88 47 -124 155 -96 l55 14 1 -26 c3 -94 1 -603 -2
-607 -3 -2 -38 -5 -79 -6 -110 -3 -132 -15 -143 -80 -6 -30 17 -89 35 -90 30
-1 -35 -18 -92 -24 -34 -4 -71 -8 -83 -10 -147 -29 -707 -26 -923 4 -38 6 -91
13 -119 16 -27 4 -66 11 -85 16 -19 5 -48 9 -64 9 l-30 0 31 33 c51 54 103
151 117 219 3 13 9 46 15 73 15 75 7 308 -13 385 -37 138 -96 225 -187 275
-47 26 -64 30 -134 30 -89 0 -146 -20 -201 -71 -57 -52 -117 -168 -130 -249
-2 -16 -8 -52 -12 -80 -11 -71 -7 -249 8 -320 7 -33 21 -82 31 -108 11 -26 19
-50 19 -52 0 -7 -175 59 -270 102 -69 31 -235 115 -247 125 -10 8 -13 62 -12
212 1 402 1 400 -22 425 -16 17 -29 22 -53 18 -60 -9 -271 -69 -299 -85 -54
-32 -52 -119 5 -148 30 -16 71 -14 136 5 l32 10 0 -156 0 -155 -52 38 c-285
202 -528 455 -681 708 -103 171 -207 418 -231 548 -2 15 -7 32 -11 38 -8 13
-1 13 38 -3 95 -39 222 -11 302 67 101 99 145 249 141 475 -5 255 -74 409
-217 480 -51 25 -70 30 -129 28 -39 -1 -70 -1 -70 0 0 14 73 182 116 267 96
189 227 376 382 546 118 129 194 198 199 182 3 -7 23 -39 44 -72 67 -100 160
-147 274 -137 103 8 182 60 240 159 59 100 77 180 80 358 l3 155 64 33 c157
82 260 123 297 117 20 -2 61 1 91 8 l55 13 -2 -295 c-1 -163 -2 -306 -2 -317
-1 -20 -7 -22 -90 -26 -98 -5 -114 -12 -131 -64 -10 -28 -9 -40 7 -71 11 -23
28 -40 43 -44 14 -4 137 -7 273 -8 274 -1 296 3 315 59 18 50 -2 104 -44 120
-14 6 -58 10 -98 10 l-73 0 0 375 c0 207 3 378 7 380 33 20 382 96 550 120 63
9 129 18 145 20 141 21 607 26 830 10 92 -6 121 -5 170 9 114 33 199 100 274
216 65 101 134 316 161 505 6 44 13 90 15 103 2 13 7 53 11 90 3 37 8 74 9 83
2 9 6 68 10 130 4 63 9 134 11 159 14 186 19 600 19 1685 0 1103 -4 1377 -19
1515 -3 19 -7 64 -11 100 -3 36 -8 79 -10 95 -3 17 -9 66 -15 111 -6 44 -12
89 -14 100 -2 10 -11 60 -21 109 -69 374 -201 726 -362 970 -75 113 -107 152
-194 243 l-71 72 245 0 c139 0 257 4 272 10 29 11 57 66 50 100 -12 63 -46 80
-160 80 l-62 0 0 406 -1 405 -23 25 c-18 19 -31 25 -54 21 -53 -7 -259 -66
-293 -84 -57 -29 -60 -112 -5 -148 25 -17 97 -14 151 6 19 7 22 5 23 -19 3
-108 1 -603 -2 -607 -3 -2 -38 -5 -79 -6 -42 -1 -85 -5 -97 -10 -27 -10 -52
-56 -47 -87 5 -26 7 -27 -81 32 -68 45 -247 136 -269 136 -8 0 -17 4 -20 8 -3
5 -30 15 -60 22 -34 8 -57 19 -60 29 -2 9 -4 166 -4 349 l0 333 -23 25 c-12
13 -30 24 -38 24 -9 0 -81 -18 -161 -40 -122 -33 -149 -44 -172 -69 -20 -22
-26 -37 -22 -57 13 -73 54 -93 149 -72 45 11 65 12 66 4 1 -12 0 -445 0 -460
-1 -4 -20 -5 -44 -2 -54 8 -336 9 -402 1 -27 -3 -77 -13 -110 -22 -33 -8 -73
-17 -89 -20 -16 -3 -39 -8 -51 -13 l-22 -8 0 350 c-1 457 14 435 -238 366
-108 -30 -134 -41 -157 -67 -26 -29 -28 -43 -13 -92 14 -45 103 -58 182 -28
20 8 23 5 24 -19 1 -33 1 -521 0 -544 -1 -16 -65 -34 -296 -84 -38 -9 -77 -17
-85 -19 -84 -19 -206 -45 -212 -45 -4 0 6 27 23 61 48 93 70 222 65 376 -5
140 -7 158 -37 247 -38 114 -112 202 -199 237 -20 8 -69 14 -115 14 -64 0 -89
-5 -123 -23 -106 -56 -170 -164 -209 -352 -3 -14 -5 -86 -5 -160 -1 -213 44
-352 144 -450 28 -27 36 -40 25 -40 -10 0 -20 -1 -24 -2 -5 -1 -26 -5 -48 -10
-22 -5 -74 -16 -115 -23 -41 -8 -86 -17 -100 -19 -14 -3 -81 -15 -150 -26 -69
-12 -134 -23 -145 -25 -11 -2 -31 -6 -45 -9 -14 -3 -43 -8 -65 -11 -22 -3 -94
-14 -160 -25 -66 -10 -142 -22 -170 -25 -27 -3 -61 -8 -75 -10 -14 -3 -38 -7
-55 -9 -16 -2 -48 -7 -71 -11 -22 -3 -56 -8 -75 -10 -51 -5 -152 -17 -169 -20
-8 -2 -44 -6 -80 -9 -36 -4 -99 -11 -140 -16 -41 -5 -104 -12 -140 -15 -36 -4
-83 -8 -105 -10 -54 -6 -190 -17 -340 -30 -53 -4 -108 -7 -325 -20 -30 -2
-123 -6 -206 -9 -148 -6 -180 -9 -294 -21 -90 -10 -238 -45 -347 -81 -302
-101 -563 -258 -810 -488 l-73 -68 2 61 c2 69 -14 109 -49 117 -14 4 -78 -9
-153 -30 -71 -20 -135 -36 -143 -36 -19 0 -68 -53 -69 -76 -3 -39 13 -74 41
-88 29 -16 99 -14 145 4 15 5 26 6 27 2 0 -4 0 -46 0 -94 l0 -87 -44 -58
c-270 -355 -484 -838 -597 -1346 -27 -125 -38 -186 -65 -361 -10 -69 -16 -53
-15 39 4 218 1 250 -21 274 -26 28 -39 27 -217 -22 -160 -44 -198 -80 -167
-154 20 -46 61 -58 140 -41 59 14 65 14 65 -1 3 -86 1 -614 -2 -616 -2 -2 -37
-5 -78 -6 -42 -1 -85 -5 -97 -10 -62 -23 -61 -145 2 -169 15 -6 98 -10 186
-10 87 0 159 -3 160 -7 1 -11 1 -764 0 -786 -1 -13 -7 -16 -25 -11 -14 3 -55
-3 -93 -15 -37 -11 -102 -29 -143 -40 -77 -21 -117 -50 -120 -86 -4 -41 1 -57
27 -81 23 -21 33 -24 79 -19 29 2 64 9 78 15 23 8 26 7 27 -13 0 -23 0 -556
-1 -594 0 -21 -4 -23 -64 -23 -117 0 -148 -16 -159 -80 -7 -37 18 -89 48 -100
15 -6 98 -10 186 -10 158 0 159 0 160 -22 0 -13 1 -195 2 -405 l2 -382 -21 5
c-12 3 -88 -13 -169 -35 -163 -44 -196 -63 -197 -119 -2 -74 60 -105 160 -79
44 12 52 12 52 1 1 -8 1 -142 1 -299 0 -157 0 -294 -1 -304 0 -17 -10 -19 -90
-23 -76 -2 -93 -6 -111 -25 -25 -24 -29 -85 -10 -122 19 -35 52 -41 222 -41
144 0 159 -2 160 -17 1 -23 1 -753 0 -774 -1 -12 -13 -15 -72 -12 -147 5 -250
-69 -314 -225 -35 -86 -47 -162 -48 -292 -2 -223 43 -370 141 -466 64 -62 105
-78 204 -79 l87 0 4 -85 c5 -110 0 -405 -7 -450 -22 -139 -23 -145 -36 -201
l-11 -47 -57 -4 c-136 -10 -236 -101 -291 -265 -35 -104 -44 -254 -27 -418 l8
-71 -68 -84 c-95 -121 -340 -361 -464 -456 -307 -236 -639 -417 -1002 -545
-107 -38 -304 -96 -356 -105 -14 -3 -29 -7 -32 -9 -23 -14 -376 -78 -389 -71
-4 3 -8 35 -8 71 -1 55 -4 70 -24 91 -18 19 -31 25 -54 21 -53 -7 -259 -66
-293 -84 -40 -20 -55 -64 -36 -110 l13 -32 -177 0 -178 0 -22 42 c-35 67 -92
126 -146 155 -44 23 -63 27 -136 27 -68 0 -93 -5 -125 -22 -43 -23 -88 -62
-120 -106 -18 -24 -24 -26 -55 -18 -19 4 -60 14 -90 21 -574 129 -1113 415
-1487 790 -82 81 -186 200 -148 169 66 -54 183 -72 277 -42 96 32 184 145 224
290 25 93 28 309 5 418 -24 112 -46 165 -101 233 -109 138 -312 149 -435 24
-90 -91 -136 -232 -138 -422 -1 -132 8 -217 33 -289 10 -31 17 -57 15 -59 -9
-10 -154 251 -201 363 -69 163 -124 385 -140 559 -7 76 -7 295 0 346 4 25 9
63 12 85 14 101 49 247 85 354 38 109 135 320 195 421 72 123 250 358 261 346
7 -6 8 -614 2 -621 -3 -2 -38 -5 -79 -6 -42 -1 -85 -6 -98 -10 -24 -9 -52 -62
-47 -88 2 -9 4 -24 4 -34 1 -9 16 -26 33 -37 31 -19 51 -20 294 -20 l261 0 27
25 c14 13 26 28 27 32 6 47 3 67 -12 91 -19 33 -50 42 -144 42 l-62 0 0 388
c0 213 -3 401 -7 417 -6 27 -1 35 36 71 113 109 321 262 511 377 271 164 642
319 950 397 87 22 90 22 147 5 105 -32 204 -11 287 60 38 32 45 35 168 50 27
4 135 12 256 20 44 3 49 1 94 -47 67 -71 120 -93 220 -92 96 1 137 17 200 78
l46 43 92 6 c96 5 166 27 236 74 19 13 37 23 40 23 3 -1 16 -23 29 -50 51
-109 146 -172 266 -176 165 -7 280 103 334 321 26 102 24 345 -2 438 -32 116
-105 229 -169 264 -16 9 -15 19 22 165 22 85 42 171 45 189 3 19 12 66 20 104
16 78 19 96 41 240 23 147 23 147 44 188 12 23 17 48 14 65 -8 40 -8 117 1
202 18 180 25 258 32 375 3 55 7 123 9 150 13 204 18 832 21 2670 1 1161 4
2124 7 2140 2 17 7 59 12 95 4 36 9 74 11 85 2 10 6 37 9 60 10 67 15 93 41
219 39 186 64 280 131 476 83 248 167 441 295 680 l66 125 122 5 c113 5 123 7
141 29 10 13 19 31 20 40 0 9 2 23 4 33 2 9 -5 30 -15 46 -19 31 -22 32 -127
44 -20 3 -14 14 60 120 89 127 218 291 296 378 l49 55 -10 -45 c-17 -74 -14
-304 6 -390 35 -151 109 -259 210 -306 74 -34 181 -29 255 11 143 78 213 255
207 525 -7 296 -106 468 -294 505 l-54 11 73 59 c41 33 76 62 79 65 20 22 243
172 335 226 96 56 110 64 181 98 175 86 294 133 455 181 129 39 644 143 735
148 50 3 97 12 125 25 24 11 69 25 99 31 30 5 127 24 214 40 88 17 162 28 165
26 3 -3 6 -15 8 -26 5 -34 23 -59 49 -69 34 -13 515 -13 549 0 50 19 66 112
26 153 -9 10 -42 21 -76 26 -33 5 -51 9 -40 11 11 1 27 3 35 5 8 2 121 19 250
40 129 20 244 38 255 40 11 3 37 7 58 10 35 5 37 3 38 -23 0 -15 2 -39 3 -54
l2 -28 -71 -1 c-114 -1 -131 -7 -149 -51 -21 -50 -10 -96 28 -119 28 -17 53
-19 283 -19 142 0 263 4 278 10 49 19 66 112 27 152 -20 21 -46 26 -133 27
l-65 1 -1 70 c-1 39 2 70 6 70 4 0 52 7 107 15 54 8 122 17 149 20 28 4 57 8
65 10 8 3 42 7 76 11 l60 6 17 -80 c46 -211 174 -337 339 -331 136 5 244 97
297 256 23 68 26 85 36 176 4 39 12 67 19 67 6 0 40 4 76 9 36 5 94 12 130 16
36 3 76 8 90 10 14 2 57 7 95 10 39 4 73 9 78 12 4 2 7 -75 7 -171 l0 -176
-75 0 c-48 0 -87 -6 -105 -15 -36 -19 -54 -72 -38 -116 19 -55 41 -59 317 -59
141 0 261 4 276 10 51 20 66 118 23 157 -15 14 -41 19 -109 21 l-88 4 1 179
c0 99 3 181 7 183 3 2 47 7 96 10 50 4 97 9 105 11 8 2 51 6 95 10 44 3 98 8
120 11 l40 5 1 -108 c3 -191 51 -338 139 -427 124 -123 328 -111 437 27 51 65
72 114 105 242 3 11 7 87 8 168 2 82 5 150 7 152 1 1 53 6 114 9 l111 7 0
-143 c1 -225 43 -366 138 -462 84 -84 226 -110 330 -60 87 41 164 147 201 281
19 64 28 344 14 393 -6 20 -4 30 3 34 11 4 415 -1 464 -7z m-676 -14 c0 -4 3
-21 5 -38 11 -66 9 -224 -3 -286 -17 -91 -40 -145 -75 -174 -68 -57 -133 -17
-176 110 -16 46 -26 305 -14 350 8 28 12 30 63 35 105 10 199 11 200 3z m-910
-86 c10 -232 -17 -361 -87 -416 -106 -83 -198 80 -193 341 2 88 2 88 28 88 29
1 165 11 168 14 1 0 20 2 42 3 40 3 41 2 42 -30z m-1854 -209 c-8 -76 -21
-123 -46 -165 -73 -119 -189 -58 -217 114 -2 15 -6 38 -9 50 -5 19 0 22 42 28
27 4 59 9 73 11 14 2 52 7 85 10 33 4 62 8 64 10 12 11 13 -1 8 -58z m4468
-19 c146 -80 143 -77 114 -130 -36 -63 -70 -85 -116 -73 -44 11 -77 53 -98
128 -20 72 -28 136 -18 136 5 0 58 -27 118 -61z m-9171 -1390 c45 -36 72 -101
83 -204 22 -200 -11 -383 -80 -441 -60 -50 -137 -9 -166 88 -22 71 -23 80 -28
195 -12 274 80 449 191 362z m5548 -1856 c56 -61 79 -147 80 -306 1 -124 -6
-181 -33 -252 -26 -71 -70 -109 -117 -101 -42 6 -58 20 -83 68 -36 70 -48 151
-45 302 2 118 7 151 25 201 28 72 71 115 115 115 22 0 40 -9 58 -27z m-7356
-7435 c35 -68 48 -148 47 -289 -2 -159 -32 -263 -89 -308 -56 -44 -116 -17
-153 69 -40 94 -39 125 12 210 51 87 106 202 137 289 13 33 24 61 26 61 2 0
11 -14 20 -32z m7437 -315 c-8 -147 -27 -216 -72 -264 -42 -43 -75 -50 -117
-22 -44 28 -93 147 -70 169 15 14 249 177 262 183 1 1 0 -29 -3 -66z m-5632
-1480 c16 -10 32 -26 35 -37 4 -10 7 -145 7 -299 l0 -280 -33 -30 c-27 -24
-39 -28 -68 -23 -51 8 -77 38 -104 119 -20 64 -23 90 -22 232 0 143 3 166 24
220 41 105 94 137 161 98z m4623 -4 c58 -46 88 -152 89 -314 0 -179 -31 -291
-95 -338 -39 -29 -94 -15 -125 32 -44 65 -58 134 -58 286 0 163 6 201 43 275
39 79 93 101 146 59z m-10187 -1839 c67 -24 107 -154 107 -345 -1 -252 -99
-403 -201 -307 -54 50 -76 128 -79 287 -5 193 22 307 84 355 28 23 46 25 89
10z m12037 -11 c40 -32 66 -91 80 -187 23 -154 8 -316 -35 -404 -58 -115 -160
-98 -209 37 -18 48 -23 86 -26 195 -3 145 6 218 38 293 36 83 97 110 152 66z
m2770 0 c33 -26 60 -78 75 -144 12 -56 21 -210 12 -222 -7 -10 -24 -19 -157
-88 -92 -48 -106 -53 -112 -37 -4 9 -7 87 -6 172 0 135 3 164 23 220 24 69 44
97 76 111 34 13 61 10 89 -12z m-9324 5 c0 -13 -82 -199 -96 -219 -14 -19 -14
-18 -9 15 12 71 37 146 61 178 23 29 44 42 44 26z m-3647 -1831 c-7 -2 -21 -2
-30 0 -10 3 -4 5 12 5 17 0 24 -2 18 -5z"/>
<path d="M8770 16771 c-165 -47 -165 -47 -178 -74 -23 -46 -18 -82 14 -112 23
-21 34 -24 79 -20 28 2 64 9 78 14 24 9 27 8 28 -12 0 -29 0 -520 0 -574 l-1
-43 -64 0 c-96 0 -125 -9 -146 -42 -29 -48 -10 -121 36 -138 14 -6 137 -10
274 -10 137 0 260 4 274 10 64 24 68 133 5 165 -17 9 -56 15 -102 15 l-74 0 0
406 -1 405 -23 25 c-12 13 -32 24 -43 23 -12 0 -82 -18 -156 -38z"/>
<path d="M9683 16785 c-100 -45 -177 -158 -210 -308 -22 -103 -21 -321 2 -412
37 -148 110 -256 204 -299 34 -15 66 -21 126 -21 70 0 87 4 134 30 93 51 151
140 189 288 16 63 20 105 18 225 -4 215 -43 340 -137 434 -61 61 -107 80 -199
84 -61 2 -85 -2 -127 -21z m171 -186 c61 -48 89 -149 89 -324 -1 -164 -24
-257 -81 -317 -60 -64 -143 -15 -178 105 -23 79 -29 297 -10 382 31 147 107
211 180 154z"/>
<path d="M10635 16797 c-81 -24 -149 -87 -195 -183 -41 -84 -61 -186 -64 -325
-5 -255 75 -447 217 -521 58 -30 193 -32 252 -3 94 46 163 147 200 290 20 78
23 109 21 240 -4 159 -16 224 -61 319 -72 153 -220 226 -370 183z m144 -202
c115 -97 115 -543 0 -640 -72 -60 -146 -8 -180 125 -22 85 -19 318 5 403 34
123 106 169 175 112z"/>
<path d="M11552 16796 c-135 -44 -221 -176 -249 -381 -13 -92 -7 -276 12 -350
50 -200 152 -308 305 -322 167 -15 296 104 349 324 25 102 23 335 -3 433 -38
139 -110 242 -201 284 -51 24 -157 30 -213 12z m147 -201 c93 -79 117 -432 40
-587 -40 -78 -108 -100 -158 -50 -53 52 -73 130 -77 288 -4 197 20 296 85 351
34 30 72 29 110 -2z"/>
<path d="M12589 16806 c-3 -3 -56 -19 -119 -35 -145 -39 -178 -55 -189 -95
-23 -87 52 -134 162 -101 l47 14 0 -47 c2 -183 1 -585 -2 -587 -2 -2 -37 -4
-78 -6 -89 -2 -124 -17 -139 -59 -14 -41 5 -100 39 -117 30 -15 515 -18 554
-3 29 11 56 57 51 86 -2 10 -4 27 -4 37 -2 34 -59 57 -142 57 l-77 0 0 406 0
405 -23 25 c-20 21 -67 33 -80 20z"/>
<path d="M13490 16799 c-13 -5 -71 -22 -128 -36 -142 -36 -179 -68 -160 -140
14 -52 55 -68 135 -53 35 7 67 10 70 6 7 -6 8 -615 1 -621 -2 -2 -37 -5 -78
-6 -42 -1 -85 -5 -97 -10 -62 -23 -61 -145 2 -169 15 -6 135 -10 275 -10 140
0 260 4 275 10 27 10 55 61 50 89 -2 9 -4 24 -4 34 -2 34 -59 57 -142 57 l-76
0 -1 406 c-1 406 -1 407 -23 430 -24 25 -57 30 -99 13z"/>
<path d="M14314 16789 c-115 -44 -200 -177 -230 -359 -13 -76 -7 -280 9 -357
34 -156 117 -273 222 -312 122 -46 257 -8 338 94 77 97 109 206 113 390 3 142
-11 245 -46 335 -72 185 -241 273 -406 209z m160 -190 c39 -31 64 -88 79 -181
25 -161 7 -345 -42 -425 -49 -78 -123 -82 -172 -8 -43 64 -59 159 -55 315 4
140 18 206 56 268 33 53 89 66 134 31z"/>
<path d="M15233 16789 c-145 -57 -231 -234 -237 -487 -5 -189 26 -326 97 -424
62 -87 126 -126 221 -135 168 -15 293 94 352 307 25 90 25 358 1 446 -55 201
-158 303 -311 311 -54 2 -83 -2 -123 -18z m161 -190 c63 -50 91 -158 89 -345
-2 -154 -33 -259 -89 -303 -61 -48 -122 -13 -164 94 -21 53 -24 77 -24 215 -1
121 3 170 17 221 33 120 105 170 171 118z"/>
<path d="M16153 16789 c-102 -40 -184 -154 -219 -304 -23 -96 -23 -325 0 -419
52 -217 181 -336 348 -323 102 9 177 54 232 141 31 48 81 166 71 166 -2 0 0
12 6 28 18 44 21 276 5 367 -31 174 -109 295 -221 344 -55 24 -164 24 -222 0z
m161 -190 c39 -30 63 -85 78 -175 25 -149 11 -328 -33 -416 -38 -75 -102 -98
-152 -55 -56 48 -85 159 -85 322 -1 258 87 406 192 324z"/>
<path d="M17092 16792 c-162 -58 -252 -253 -246 -534 4 -207 47 -339 140 -432
64 -64 107 -81 204 -81 76 0 91 3 139 30 89 49 149 138 187 275 25 92 25 358
1 448 -55 198 -157 300 -307 309 -46 2 -80 -2 -118 -15z m152 -193 c41 -32 66
-89 82 -185 8 -50 8 -227 0 -279 -34 -211 -165 -277 -234 -117 -31 71 -34 94
-38 237 -4 140 9 223 46 295 36 70 93 89 144 49z"/>
<path d="M18129 16806 c-3 -3 -63 -21 -134 -40 -144 -39 -179 -62 -177 -116 2
-74 61 -103 160 -77 l52 14 1 -26 c0 -31 0 -495 -1 -563 l0 -48 -75 0 c-89 0
-128 -16 -144 -60 -14 -41 5 -100 39 -117 18 -9 96 -13 288 -13 l263 0 24 25
c24 23 28 33 28 70 0 46 -6 57 -35 75 -25 15 -51 20 -110 20 l-78 0 2 393 c0
216 -3 403 -7 417 -4 14 -15 30 -24 37 -16 12 -63 18 -72 9z"/>
<path d="M6915 14920 c-151 -43 -173 -54 -184 -95 -12 -44 6 -84 45 -103 31
-14 40 -14 99 0 64 15 65 15 66 -6 1 -25 1 -598 0 -608 -1 -5 -34 -8 -73 -9
-102 -1 -120 -8 -142 -52 -16 -34 -17 -42 -4 -75 7 -20 25 -42 38 -49 30 -15
515 -18 554 -3 28 10 42 32 49 77 6 35 -23 92 -48 94 -8 1 -19 3 -25 4 -5 1
-41 3 -79 4 l-69 1 1 383 c0 210 -3 398 -6 418 -5 25 -15 39 -33 47 -34 16
-40 15 -189 -28z"/>
<path d="M7857 14946 c-158 -59 -248 -237 -250 -495 -2 -175 13 -262 64 -368
55 -114 144 -180 258 -190 183 -17 318 126 361 382 14 85 6 297 -14 373 -53
198 -157 301 -310 309 -45 2 -85 -2 -109 -11z m143 -192 c59 -35 93 -155 92
-324 -1 -69 -3 -136 -6 -150 -3 -14 -9 -38 -12 -55 -18 -83 -74 -148 -122
-143 -93 11 -134 107 -138 323 -2 112 1 154 16 212 34 131 96 180 170 137z"/>
<path d="M8766 14920 c-119 -32 -144 -42 -167 -68 -28 -32 -31 -61 -8 -103 17
-32 77 -43 142 -26 31 8 57 12 57 9 1 -11 1 -574 1 -604 l-1 -28 -75 0 c-89 0
-128 -16 -144 -60 -14 -41 5 -100 39 -117 18 -9 95 -13 280 -13 237 0 257 1
288 20 32 20 37 34 33 95 -4 54 -30 68 -130 73 l-89 4 0 405 0 404 -23 25
c-12 13 -32 23 -43 23 -12 -1 -84 -18 -160 -39z"/>
<path d="M9712 14946 c-117 -39 -203 -151 -239 -316 -22 -101 -21 -321 1 -414
34 -142 105 -249 198 -298 34 -18 60 -22 128 -23 76 0 91 3 139 30 60 33 123
105 153 175 41 95 58 205 54 355 -6 194 -37 299 -123 403 -68 83 -207 122
-311 88z m142 -197 c59 -46 89 -153 89 -319 0 -170 -21 -257 -76 -317 -24 -27
-77 -39 -106 -24 -32 18 -70 92 -86 167 -16 79 -18 244 -3 324 28 157 106 229
182 169z"/>
<path d="M10632 14945 c-100 -31 -173 -114 -217 -243 -30 -89 -40 -166 -38
-302 4 -326 147 -524 366 -507 155 13 254 118 305 322 26 102 24 345 -2 440
-64 230 -232 348 -414 290z m147 -200 c98 -83 118 -461 32 -602 -31 -50 -65
-68 -109 -57 -44 11 -75 53 -100 133 -25 84 -24 333 3 420 36 119 107 162 174
106z"/>
<path d="M11659 14956 c-3 -3 -56 -19 -119 -35 -63 -17 -129 -38 -147 -47 -61
-32 -62 -118 -1 -150 29 -15 94 -12 146 7 15 6 22 5 23 -4 3 -48 1 -618 -2
-621 -2 -2 -43 -6 -91 -8 -95 -5 -111 -13 -128 -63 -14 -44 8 -101 45 -115 15
-6 134 -10 275 -10 141 0 260 4 275 10 29 11 57 66 50 100 -12 63 -46 80 -160
80 l-62 0 0 398 c0 403 -2 431 -37 454 -12 8 -60 11 -67 4z"/>
<path d="M12468 14921 c-69 -20 -138 -43 -152 -50 -58 -31 -50 -124 13 -150
25 -11 42 -11 96 1 l65 15 0 -78 c1 -44 1 -162 1 -264 0 -102 0 -210 -1 -240
l0 -55 -75 0 c-41 0 -86 -5 -100 -12 -32 -14 -56 -57 -50 -88 17 -89 22 -90
330 -90 157 0 264 4 276 10 46 25 57 115 19 154 -16 16 -37 21 -109 24 l-89 4
0 405 0 404 -23 25 c-29 31 -46 30 -201 -15z"/>
<path d="M17083 14939 c-101 -40 -184 -154 -219 -304 -25 -105 -22 -336 5
-438 54 -203 170 -309 333 -304 219 7 341 211 334 557 -5 243 -74 402 -205
473 -71 39 -174 46 -248 16z m161 -190 c30 -23 63 -82 71 -125 2 -16 7 -40 10
-54 4 -14 6 -78 7 -143 0 -161 -22 -255 -74 -310 -34 -36 -41 -39 -74 -34 -44
7 -60 20 -85 69 -36 71 -48 151 -44 302 3 140 12 186 48 253 34 63 92 81 141
42z"/>
<path d="M18110 14949 c-14 -5 -74 -23 -135 -39 -88 -24 -115 -35 -137 -59
-14 -16 -25 -38 -23 -48 2 -10 4 -24 4 -31 1 -7 13 -24 27 -37 21 -19 34 -23
72 -20 26 2 62 8 80 14 27 8 32 7 32 -7 1 -32 1 -507 1 -564 l-1 -58 -72 -1
c-102 -1 -120 -8 -142 -52 -16 -34 -17 -42 -4 -75 7 -20 25 -42 38 -49 31 -16
515 -18 555 -3 51 19 66 118 24 156 -15 13 -42 19 -108 22 l-89 4 0 407 -1
406 -26 23 c-27 23 -53 26 -95 11z"/>
<path d="M7021 13099 c-13 -5 -69 -21 -124 -35 -147 -37 -171 -55 -169 -127 1
-25 31 -65 51 -68 3 0 17 -2 29 -5 13 -2 48 2 78 10 l54 14 1 -41 c1 -49 1
-529 0 -569 l-1 -28 -77 0 c-93 0 -123 -13 -141 -61 -12 -31 -11 -41 2 -73 9
-22 25 -40 41 -46 34 -13 515 -13 549 0 61 23 67 140 9 165 -27 12 -28 12
-107 14 l-73 1 0 393 c0 215 -4 403 -8 417 -15 46 -59 61 -114 39z"/>
<path d="M7858 13096 c-107 -41 -173 -119 -218 -256 -27 -85 -35 -149 -33
-290 2 -187 48 -331 134 -418 66 -68 110 -86 209 -86 73 -1 92 3 136 26 88 46
152 140 190 278 25 92 26 358 0 450 -55 198 -157 299 -310 307 -45 2 -85 -2
-108 -11z m146 -197 c73 -58 105 -228 83 -445 -21 -208 -154 -298 -227 -154
-64 126 -66 421 -4 543 39 75 96 97 148 56z"/>
<path d="M17130 13083 c-47 -13 -109 -31 -138 -39 -76 -21 -109 -67 -90 -126
19 -55 76 -68 176 -39 27 8 32 7 33 -7 2 -79 0 -614 -3 -617 -2 -2 -37 -5 -78
-6 -96 -2 -118 -11 -135 -53 -19 -45 -2 -104 35 -123 31 -16 515 -18 555 -3
35 13 58 69 47 113 -11 46 -58 67 -148 67 l-72 0 0 398 c1 402 -2 431 -36 454
-18 12 -55 7 -146 -19z"/>
<path d="M18035 13101 c-121 -32 -215 -153 -252 -324 -16 -74 -22 -279 -10
-352 40 -251 164 -387 349 -382 121 4 208 66 271 192 43 86 60 169 63 315 7
339 -114 546 -325 556 -36 2 -79 0 -96 -5z m129 -202 c29 -23 60 -78 70 -124
3 -16 9 -41 12 -55 7 -32 7 -258 0 -290 -3 -14 -9 -38 -12 -55 -17 -79 -73
-145 -123 -145 -86 0 -140 133 -140 345 0 215 55 344 145 345 12 0 33 -9 48
-21z"/>
<path d="M6945 11261 c-174 -45 -274 -247 -269 -541 3 -197 50 -344 136 -431
61 -62 117 -84 213 -84 70 0 87 4 134 30 84 46 164 164 187 275 2 14 9 45 14
70 22 112 5 331 -35 445 -34 99 -103 183 -181 220 -42 20 -151 29 -199 16z
m129 -202 c42 -33 68 -93 83 -192 11 -69 7 -238 -7 -302 -42 -204 -175 -237
-241 -60 -29 78 -36 307 -13 406 34 144 106 204 178 148z"/>
<path d="M17073 11245 c-101 -45 -178 -158 -209 -305 -24 -115 -24 -283 0
-414 10 -52 49 -145 82 -193 134 -196 412 -169 522 49 53 106 71 208 68 383
-5 240 -74 397 -207 470 -74 40 -179 44 -256 10z m171 -186 c46 -36 73 -102
84 -209 26 -258 -34 -460 -137 -460 -84 0 -137 124 -140 333 -5 260 87 419
193 336z"/>
<path d="M18128 11265 c-3 -3 -57 -19 -119 -35 -143 -37 -177 -54 -188 -94
-15 -57 16 -104 74 -113 10 -2 43 1 72 7 29 6 55 10 59 8 4 -2 8 -473 4 -610
0 -16 -10 -18 -75 -18 -47 0 -87 -6 -104 -15 -51 -26 -60 -105 -19 -150 18
-19 32 -20 271 -23 139 -2 267 0 285 3 41 8 66 45 65 97 -1 65 -25 81 -131 86
l-89 4 -2 400 c-1 395 -4 430 -35 450 -13 9 -60 10 -68 3z"/>
<path d="M6913 9399 c-102 -39 -179 -147 -218 -304 -18 -73 -25 -268 -12 -355
35 -249 167 -395 350 -389 206 8 336 213 335 533 0 279 -90 465 -251 520 -63
21 -140 19 -204 -5z m162 -191 c75 -59 111 -275 77 -472 -22 -134 -73 -203
-141 -192 -44 7 -65 27 -90 85 -29 69 -33 92 -37 236 -4 150 5 208 44 285 39
79 93 101 147 58z"/>
<path d="M17208 9415 c-3 -3 -57 -19 -119 -36 -63 -16 -126 -34 -140 -40 -49
-19 -66 -86 -35 -133 21 -33 69 -41 139 -23 52 14 57 14 57 -1 1 -44 1 -589 1
-604 -1 -16 -12 -18 -76 -18 -47 0 -87 -6 -104 -15 -63 -32 -59 -141 5 -165
34 -13 515 -13 549 0 34 13 56 64 46 110 -9 49 -54 70 -147 70 l-71 0 0 406
-1 406 -23 24 c-20 22 -67 33 -81 19z"/>
<path d="M18110 9409 c-14 -5 -74 -22 -134 -39 -143 -38 -176 -70 -153 -143
13 -38 58 -60 108 -52 21 4 42 7 46 7 5 0 18 4 31 9 19 7 22 5 22 -14 3 -107
1 -609 -2 -612 -2 -2 -37 -5 -78 -6 -41 -1 -87 -8 -101 -15 -61 -31 -56 -141
7 -164 14 -6 138 -10 275 -10 274 0 298 4 317 57 14 43 3 92 -26 111 -27 17
-42 20 -133 21 l-57 1 0 406 0 406 -23 24 c-23 25 -54 29 -99 13z"/>
<path d="M7039 7566 c-3 -3 -62 -21 -133 -40 -166 -45 -202 -78 -170 -155 20
-48 53 -55 162 -36 32 6 42 4 43 -6 1 -19 1 -579 0 -601 -1 -15 -12 -18 -73
-19 -101 -1 -120 -8 -141 -50 -15 -32 -16 -41 -5 -75 8 -23 23 -44 38 -51 30
-15 514 -18 554 -3 66 25 66 145 0 170 -14 6 -58 10 -98 10 l-73 0 0 405 0
406 -23 24 c-21 22 -68 34 -81 21z"/>
<path d="M15359 7566 c-3 -3 -62 -21 -133 -40 -166 -45 -202 -78 -170 -155 20
-48 53 -55 162 -36 32 6 42 4 43 -6 1 -19 1 -579 0 -601 -1 -15 -12 -18 -73
-19 -101 -1 -120 -8 -141 -50 -15 -32 -16 -41 -5 -75 8 -23 23 -44 38 -51 30
-15 514 -18 554 -3 66 25 66 145 0 170 -14 6 -58 10 -98 10 l-73 0 0 405 0
406 -23 24 c-21 22 -68 34 -81 21z"/>
<path d="M16200 7543 c-47 -13 -109 -31 -137 -39 -79 -22 -107 -59 -91 -121
14 -54 68 -72 153 -49 40 10 55 11 56 3 1 -17 1 -589 0 -609 -1 -16 -12 -18
-75 -18 -41 0 -86 -4 -100 -10 -64 -24 -68 -133 -5 -166 25 -12 73 -14 294
-12 249 3 266 4 284 23 42 43 27 136 -24 155 -15 6 -59 10 -99 10 l-73 0 0
405 0 406 -23 24 c-29 31 -50 30 -160 -2z"/>
<path d="M17083 7550 c-142 -57 -230 -234 -237 -476 -9 -340 111 -555 319
-571 184 -15 318 119 361 362 13 70 12 301 -1 359 -47 215 -159 335 -320 343
-53 2 -82 -2 -122 -17z m161 -191 c73 -57 107 -234 83 -435 -30 -264 -188
-322 -254 -94 -19 63 -21 93 -18 224 3 151 11 194 48 263 34 63 92 81 141 42z"/>
<path d="M18111 7559 c-13 -5 -69 -21 -124 -35 -120 -30 -150 -46 -165 -87
-10 -26 -9 -37 6 -66 23 -47 67 -58 146 -38 l56 15 1 -46 c0 -55 0 -525 -1
-564 0 -28 0 -28 -72 -29 -100 -1 -120 -8 -140 -50 -14 -28 -16 -42 -7 -72 17
-64 33 -67 318 -67 141 0 261 4 276 10 27 10 55 61 50 89 -2 9 -4 24 -4 34 -2
34 -59 57 -144 57 l-77 0 1 405 2 406 -23 24 c-25 26 -57 31 -99 14z"/>
<path d="M3223 5699 c-191 -75 -281 -374 -218 -727 14 -79 65 -179 120 -237
55 -56 109 -79 197 -82 68 -2 83 1 137 28 146 73 220 247 218 512 -1 201 -43
338 -131 431 -58 61 -114 87 -200 92 -56 3 -82 0 -123 -17z m161 -190 c59 -46
88 -152 88 -318 1 -242 -63 -374 -165 -345 -73 22 -111 130 -112 324 0 165 8
220 43 285 40 74 95 94 146 54z"/>
<path d="M4268 5715 c-3 -3 -63 -21 -133 -40 -165 -44 -201 -77 -169 -154 18
-44 54 -55 132 -41 36 6 66 9 68 7 4 -4 6 -174 5 -449 l-1 -178 -74 0 c-41 0
-86 -4 -100 -10 -41 -15 -61 -71 -43 -123 18 -53 42 -57 316 -57 141 0 261 4
276 10 37 14 57 67 44 114 -14 50 -49 66 -143 66 l-74 0 0 353 c-1 501 1 460
-22 485 -19 20 -69 30 -82 17z"/>
<path d="M5079 5701 c-64 -25 -104 -57 -145 -116 -122 -179 -134 -549 -24
-765 29 -57 107 -127 164 -149 62 -24 171 -22 230 4 85 36 165 149 202 285 25
91 26 358 1 448 -38 139 -116 250 -203 287 -57 25 -169 28 -225 6z m144 -182
c26 -12 62 -69 78 -122 25 -86 29 -273 8 -385 -14 -75 -61 -152 -101 -166 -61
-21 -113 26 -146 133 -24 81 -24 333 2 416 34 114 89 156 159 124z"/>
<path d="M6005 5703 c-166 -60 -256 -256 -249 -544 8 -327 139 -512 359 -505
151 4 258 110 312 308 25 90 24 357 -1 448 -38 139 -110 242 -199 283 -57 27
-161 32 -222 10z m149 -194 c60 -47 89 -151 89 -314 0 -191 -30 -297 -98 -341
-38 -25 -92 -10 -122 35 -41 60 -55 127 -59 271 -4 148 10 233 49 304 36 65
92 83 141 45z"/>
<path d="M7039 5716 c-3 -3 -63 -21 -133 -40 -164 -45 -193 -70 -174 -143 12
-45 56 -67 117 -58 25 4 54 11 63 16 11 6 19 5 24 -2 7 -12 9 -617 2 -624 -2
-2 -37 -5 -78 -6 -42 -1 -85 -6 -98 -10 -24 -9 -52 -62 -47 -88 2 -9 4 -22 4
-29 1 -7 13 -24 27 -37 l27 -25 258 0 c142 0 269 4 283 10 46 17 65 90 36 138
-20 33 -50 42 -145 42 l-62 0 0 383 c0 211 -3 399 -7 418 -4 25 -14 39 -32 47
-25 12 -57 16 -65 8z"/>
<path d="M13381 5679 c-171 -49 -207 -81 -176 -156 18 -43 64 -59 127 -45 27
7 56 12 64 12 12 0 14 -49 14 -315 l0 -315 -64 0 c-117 0 -148 -16 -159 -81
-7 -35 21 -89 50 -100 32 -12 515 -12 547 1 53 20 67 114 23 155 -17 16 -38
21 -109 23 l-87 4 0 371 c0 205 0 388 0 408 -1 44 -32 79 -69 78 -15 -1 -87
-19 -161 -40z"/>
<path d="M14438 5715 c-3 -3 -63 -21 -133 -39 -148 -39 -177 -59 -177 -122 0
-69 57 -95 152 -71 55 14 60 13 61 -2 1 -21 1 -569 0 -598 -1 -22 -5 -23 -76
-23 -106 0 -139 -20 -151 -89 -5 -28 25 -81 51 -91 34 -13 515 -13 549 0 47
18 66 88 37 136 -22 35 -50 44 -146 44 l-62 0 0 393 c0 215 -4 403 -8 417 -4
14 -15 30 -24 37 -16 13 -63 17 -73 8z"/>
<path d="M15247 5705 c-169 -59 -258 -259 -251 -558 6 -243 88 -409 234 -475
47 -21 65 -24 127 -19 88 7 135 28 193 87 94 96 140 249 138 460 -1 140 -19
229 -64 325 -33 70 -108 149 -162 172 -50 21 -167 26 -215 8z m147 -196 c59
-46 89 -155 89 -319 -1 -230 -58 -361 -152 -346 -44 7 -65 27 -90 85 -30 70
-33 93 -37 242 -3 143 8 215 47 290 35 69 92 88 143 48z"/>
<path d="M16150 5679 c-138 -40 -176 -63 -180 -104 -4 -41 1 -57 26 -80 23
-22 34 -24 79 -20 28 2 64 9 78 14 20 8 27 7 28 -2 3 -45 0 -619 -3 -622 -2
-2 -37 -5 -78 -6 -93 -2 -115 -10 -134 -47 -25 -49 1 -123 47 -136 37 -10 514
-7 541 4 47 18 66 88 37 136 -22 35 -50 44 -146 44 l-63 0 1 401 c0 516 14
490 -233 418z"/>
<path d="M17191 5709 c-13 -5 -68 -21 -122 -34 -127 -32 -145 -41 -163 -79
-17 -36 -12 -73 15 -98 27 -26 59 -30 129 -16 l65 14 -2 -296 c-2 -162 -3
-305 -3 -317 0 -22 -4 -23 -74 -23 -109 0 -138 -15 -149 -81 -7 -37 18 -88 48
-99 34 -13 515 -13 549 0 32 12 49 44 49 93 0 64 -25 80 -132 85 l-89 4 0 392
c1 215 -3 403 -7 416 -15 46 -59 61 -114 39z"/>
<path d="M18129 5716 c-3 -3 -56 -19 -119 -35 -140 -38 -176 -55 -189 -92 -13
-37 2 -82 34 -103 23 -15 51 -15 140 -1 l40 7 -2 -284 c-1 -155 -2 -298 -2
-315 l-1 -33 -75 0 c-89 0 -128 -16 -144 -60 -14 -41 5 -100 39 -117 18 -9 95
-13 280 -13 237 0 257 1 288 20 17 11 33 28 33 37 1 10 3 28 4 40 1 12 -6 35
-15 51 -20 33 -51 42 -145 42 l-63 0 0 406 1 405 -23 25 c-21 21 -68 33 -81
20z"/>
<path d="M3226 3830 c-176 -49 -213 -81 -181 -157 20 -47 63 -60 141 -41 l64
15 0 -71 c1 -107 1 -411 1 -493 l-1 -73 -69 0 c-37 0 -83 -5 -101 -11 -43 -15
-63 -62 -49 -112 18 -65 23 -66 309 -67 153 0 268 4 284 10 33 12 56 63 49
108 -8 51 -50 72 -145 72 l-76 0 0 406 0 406 -23 24 c-12 13 -32 24 -43 23
-12 0 -83 -18 -160 -39z"/>
<path d="M4268 3865 c-3 -3 -57 -19 -119 -35 -140 -36 -175 -53 -189 -93 -8
-24 -7 -37 7 -66 24 -48 62 -59 143 -38 l60 15 0 -74 c1 -41 1 -157 1 -259 0
-102 0 -212 -1 -245 l0 -60 -69 0 c-92 0 -130 -14 -147 -56 -18 -43 0 -103 36
-121 31 -16 515 -18 555 -3 33 12 57 67 48 110 -9 49 -52 70 -144 70 l-77 0 0
406 0 405 -23 25 c-20 22 -67 33 -81 19z"/>
<path d="M5093 3856 c-57 -19 -103 -49 -134 -88 -93 -120 -124 -235 -122 -453
2 -242 78 -415 216 -487 62 -32 194 -32 257 1 139 73 211 233 216 481 5 276
-66 453 -211 527 -60 31 -159 40 -222 19z m149 -203 c35 -31 59 -91 72 -181
36 -248 -22 -470 -127 -481 -89 -9 -146 126 -146 351 0 158 36 283 91 323 28
20 82 14 110 -12z"/>
<path d="M5999 3852 c-122 -45 -214 -191 -236 -375 -12 -97 -7 -265 11 -346
31 -145 108 -260 205 -305 34 -15 66 -21 126 -21 70 0 87 4 132 29 137 76 203
227 209 476 7 272 -67 454 -215 528 -71 35 -161 41 -232 14z m161 -194 c54
-51 83 -158 84 -313 0 -165 -30 -283 -85 -330 -64 -53 -126 -20 -169 90 -21
54 -24 77 -24 220 -1 187 15 260 70 320 27 30 38 35 69 33 19 -1 44 -10 55
-20z"/>
<path d="M6945 3861 c-120 -31 -215 -151 -252 -321 -22 -100 -22 -305 0 -407
31 -145 110 -263 206 -307 71 -32 189 -29 258 6 85 45 152 144 189 278 26 92
26 357 0 450 -38 140 -115 247 -203 286 -43 18 -153 27 -198 15z m137 -207
c67 -61 97 -236 75 -439 -20 -190 -117 -281 -202 -191 -47 50 -68 134 -72 291
-4 180 28 307 89 350 28 20 81 14 110 -11z"/>
<path d="M15245 3833 c-66 -18 -135 -41 -153 -50 -62 -31 -59 -120 4 -151 31
-14 40 -14 99 0 l65 15 1 -61 c1 -65 1 -542 0 -563 -1 -9 -22 -13 -71 -13 -87
0 -134 -18 -147 -56 -18 -53 1 -109 43 -124 39 -15 524 -12 554 3 13 7 31 29
38 49 13 33 12 41 -4 75 -22 44 -40 51 -140 52 l-71 1 0 405 0 406 -23 24
c-30 32 -46 31 -195 -12z"/>
</g>
</svg>
